<?xml version="1.0" encoding="UTF-8"?>
<svg id="Livello_1" data-name="Livello 1" xmlns="http://www.w3.org/2000/svg" xmlns:xlink="http://www.w3.org/1999/xlink" viewBox="0 0 2000 2000">
  <defs>
    <style>
      .cls-1 {
        mask: url(#mask);
      }

      .cls-2 {
        fill: #ffffff;
      }

      .cls-3 {
        filter: url(#luminosity-noclip);
      }

      .cls-4 {
        stroke: #000;
        stroke-miterlimit: 10;
        stroke-width: 1.82px;
      }

      .cls-5 {
        fill: #e63312;
      }
    </style>
    <filter id="luminosity-noclip" x="95.85" y="758" width="778.98" height="481.54" color-interpolation-filters="sRGB" filterUnits="userSpaceOnUse">
      <feFlood flood-color="#fff" result="bg"/>
      <feBlend in="SourceGraphic" in2="bg"/>
    </filter>
    <mask id="mask" x="95.85" y="758" width="778.98" height="481.54" maskUnits="userSpaceOnUse">
      <g class="cls-3">
        <path class="cls-4" d="M516.78,1022.69c-11.95-10.33-13.66-16.49-12.73-27.13,1.6-18.26,16.1-23.75,16.1-23.75,0,0,3.05-1.19,9.15-8.88,6.1-7.69,8.18-8.39,11.98-16.42,3.8-8.03,3.53-10.26,4.47-19.18.94-8.92.98-18.09,1.7-28.11.72-10.02,5.39-13.76,5.39-13.76l21.2,3.24c-4.27-.84-10.46-2.37-17.38-3.13-6.91-.76-10.2,1.69-21.16,1.04-10.96-.65-19.5-9.38-19.5-9.38,0,0-5.13,1.2-9.38,14.33-4.25,13.13-8.22,14.18-8.69,21.28-.47,7.1-.79,14.36-1.68,20.96-.89,6.6-2.82,9.94-.79,15.09,2.03,5.14,3.63,10.11,4.36,14.21.72,4.1-2.05,1.98-3.56,10.39-1.51,8.4-5.67,3.75-5.67,3.75,0,0-.96,2.09-1.54,8.71-.58,6.62-1.25,7.18-3.77,7.58-2.52.4-.79,4.34-4.04,4.36-3.27.02-2.93-3.83-6.1-3.02-3.17.81-3.17-8.04-3.9-6.86-.72,1.18-2.63-.08-3.54-3.88-.91-3.8-.41-13.07.35-19.99.76-6.92,5.02-11.2,7.33-16.43,2.32-5.23.03-2.17,1.16-9.68,1.12-7.51-2.47-17.91-1.6-33.2.87-15.29,1.14-14.8,4.06-23.39,2.93-8.59,3.59-19.7,5.45-23.27s15-6.54,23.58-7.03c8.58-.49,9.96-4.62,27.59-4,17.63.61,26.07,6,26.07,6,0,0,6.55-4.75,17.31-2.83,13.71,2.44,15.32,7.55,15.32,7.55,0,0,6.03-.64,10.16,1.73,4.14,2.38,3.78,3.83,7.46,4.31,3.68.48,3.57-1.71,3.88-3.54.31-1.83-2.76-9.24-1.7-17.84,1.07-8.6,6.33-15.59,9.86-18.69,3.53-3.11,12.25-5.29,21.45-4.02,9.2,1.27,9.64,5.03,12.41,7.14,2.76,2.1,5.47,1.25,8.84,1.86,3.36.6,6.95,5.73,8.18,12.82,1.24,7.09-5.18,7.77-5.18,7.77,0,0-.47,1.82-.61,5.22-.14,3.4-1.71,7.14-3.46,9.32-1.74,2.17.34,3.29.19,6.69-.14,3.4-4.65,1.77-5.45,2.01-.8.24-1.34,1.12-1.19,3,.15,1.88-2.57,1.02-2.55,2.57.02,1.56-2.29,1.35-3.25,1.73-.96.38-.07.77-2.49,3.66-2.43,2.89-5.09,1.42-10.94.91-5.85-.51-5.73,1.67-7.87,4.9q-2.15,3.23-1.35,8.26c.8,5.03,3.41,14.26,3.36,22.64-.04,8.38,1.3,16.26-7.23,21.55-8.53,5.3-9.62,5.33-10.32,9.79-.7,4.46-3.81,9.16-3.81,9.16,0,0,6.78,4.78,17.56,2.94,10.78-1.84,12.13-1.12,13.92-3.76,1.78-2.64,5.63-7.58,10.74-9.3,5.11-1.72,8.4-7.33,10.98-4.94,2.58,2.4-8.28,9.52-8.28,9.52,0,0,2.47.22,6.16.54,3.69.33,14.65-4.3,17.73-4.03,3.08.27-.55,2.74,2.65,3.64,3.21.9-2.58,2.57-.69,5.84,1.89,3.27-16.69,6.3-10.58,6.22,6.11-.07,10.11,2.63-.44,5.02-10.55,2.39-17.78,4.65-23.83,2.88-6.05-1.77-13.35,6.43-30.65,8.64-17.3,2.21-26.2.24-26.2.24l-9.91,11.77s7.25,2.29,18.54,10.31c11.3,8.03,19.57,17.44,31.27,30.47,11.68,13.02,18.91,20.28,22.05,31.73,3.13,11.44-2.19,15.53-4.64,19.87-2.45,4.34-11.15,23.44-19.6,39.68-8.46,16.23-5.38,9.46-20.05,30.52-14.67,21.06-8.78,27.79-8.78,27.79,0,0,.79,2.14,3.55,3.62,2.76,1.49.65,6.68,5.33,10.81,4.67,4.14,19.19,11.61,27.03,11.88,7.84.27,9.76,6.65,2.55,13.46-7.22,6.82-22.64,12.92-32.88,12.43-10.23-.48-13.08-7.35-19.79-6.28-6.71,1.07-25.83-2.67-31.74-6.09-5.91-3.42-1.62-5.11.79-9.03,2.41-3.93,3.04-6.36,4.47-13.27,1.43-6.9,9.16-14.92,9.16-14.92,0,0-1.39,4.69.09,3.73,1.48-.96,9.37-23.7,13.67-32.17,4.31-8.47,6.79-26.1,11.21-44.8,4.43-18.7,22.58-34.65,22.58-34.65l4.34,3.95s-8.3-10.04-15.48-14.86c-7.18-4.82-13.94-5.56-30.01-9.92-16.06-4.36-23.99-14.83-23.99-14.83,0,0-3.75,7.57-14.32,18.44-10.57,10.87-14.16,9.7-27.35,18.63-13.19,8.93-9.67,2.1-23.28,12.34-10.62,7.99-17.6,11.05-26.73,10.72-9.13-.33-16.28,5.18-16.28,5.18,0,0-9.28,5.65-26.54,6.16-17.27.5-22.75,1.01-33,2.91-10.25,1.9-23.27,12.4-23.27,12.4,0,0,5.66-.9,5.97,2.69.31,3.6-8.77,6.22-14.53,8.2-5.76,1.98-2.23,1.44-5.48,6.58-3.24,5.15-7.39,11.95-13.6,24.45-6.21,12.49-6.1,12.97-10.11,12.62-4-.35-6.21-7.29-9.07-22.58-2.85-15.3,4.14-17.18,5.64-21.86,1.5-4.68-.74-9.22.49-19.82,1.24-10.6,1.84-16.85,7.58-18.52,5.73-1.67,8.93.78,8.93.78,0,0,3.9-1.98,11.04-1.98,7.13,0,13.09,1.14,13.09,1.14,0,0,8.37-2.95,17.47-5.88,9.1-2.93,18.66-6.42,23.69-8.93,5.03-2.51,10.44-12.17,27.11-16.45,16.67-4.28,25.36.23,25.36.23l-4.37,5.92s8.37-7.27,17.58-15c9.21-7.73,10.54-16.66,18.08-26.55,7.53-9.89,15.76-10.79,19.6-14.17,3.85-3.39,5.99-5.55,5.99-5.55"/>
      </g>
    </mask>
  </defs>
  <path class="cls-5" d="M806.26,1095.39h41.72v-29.07h-117.2v29.07h41.72v138.52h33.75v-138.52h0ZM942.21,1233.92h33.28v-167.59h-33.28v66.8h-57.66v-66.8h-33.28v167.59h33.28v-71.49h57.66v71.49h0ZM1001.97,1233.92h88.13v-28.83h-54.38v-43.13h54.38v-28.36h-54.38v-38.2h54.38v-29.07h-88.13v167.59h0ZM1169.09,1233.92c70.32,0,74.3-79.93,31.17-89.07v-.7c30.47-7.97,37.27-77.82-33.52-77.82h-50.86v167.59h53.21ZM1161.83,1133.12v28.36h2.81c41.02,0,40.55,43.6-4.69,43.6h-10.31v-109.69h8.91c43.36,0,36.8,37.73,3.75,37.73h-.47ZM1245.04,1233.92h88.13v-28.83h-54.38v-43.13h54.38v-28.36h-54.38v-38.2h54.38v-29.07h-88.13v167.59h0ZM1414.03,1086.95h.94l15.24,75h-30.47l14.29-75h0ZM1444.74,1233.92h36.09l-37.97-167.59h-55.79l-37.5,167.59h36.33l8.44-43.6h41.49l8.91,43.6h0ZM1546.69,1235.32c66.8,0,78.52-78.29,18.28-98.44l-20.39-6.8c-27.43-9.14-22.74-37.5-.24-37.5,17.34,0,22.27,15,22.27,15l29.3-7.03s-7.97-35.86-51.1-35.86c-58.6,0-74.77,74.3-15.47,94.93l22.27,7.74c28.36,9.84,21.33,38.91-4.46,38.91s-28.59-15.47-28.59-15.47l-29.77,7.03s6.33,37.5,57.89,37.5h0ZM1676.55,1095.39h41.72v-29.07h-117.2v29.07h41.72v138.52h33.75v-138.52h0Z"/>
  <path class="cls-2" d="M1163.92,1036.51c63.84,0,67.46-72.56,28.3-80.86v-.64c27.66-7.24,33.83-70.65-30.43-70.65h-46.18v152.15h48.31ZM1157.32,945v25.75h2.55c37.24,0,36.81,39.58-4.26,39.58h-9.36v-99.59h8.08c39.37,0,33.41,34.26,3.41,34.26h-.43ZM1293.3,1039.27c44.47,0,67.46-41.5,67.46-80.65s-23.2-77.25-67.67-77.25-67.03,40.86-67.03,80.01,23.19,77.88,67.24,77.88h0ZM1293.72,908.62c22.77,0,33.84,22.13,33.84,51.07s-12.55,52.56-34.26,52.56-34.47-20.43-34.47-50.65,12.13-52.98,34.9-52.98h0ZM1434.38,1039.27c44.47,0,67.46-41.5,67.46-80.65s-23.2-77.25-67.67-77.25-67.03,40.86-67.03,80.01,23.2,77.88,67.24,77.88h0ZM1434.81,908.62c22.77,0,33.84,22.13,33.84,51.07s-12.55,52.56-34.26,52.56-34.47-20.43-34.47-50.65,12.13-52.98,34.9-52.98h0ZM1562.49,1037.78c60.65,0,71.29-71.07,16.6-89.37l-18.51-6.17c-24.9-8.3-20.64-34.05-.21-34.05,15.75,0,20.22,13.62,20.22,13.62l26.6-6.39s-7.24-32.56-46.39-32.56c-53.2,0-67.88,67.45-14.04,86.18l20.22,7.02c25.75,8.94,19.36,35.32-4.04,35.32s-25.96-14.04-25.96-14.04l-27.03,6.38s5.75,34.05,52.56,34.05h0ZM1680.37,910.74h37.88v-26.39h-106.4v26.39h37.88v125.76h30.64v-125.76h0Z"/>
  <g class="cls-1">
    <g>
      <path class="cls-5" d="M826.34,813.41c-1.06-2.74-2.65-3.57-6.29-3.28-1.44.11-3.23.4-5.84.84-7.38,1.26-13.03-4.43-13.08-4.49l-1.09.93c.27.37,6.71,9.1,14.97,11.39,7.96,2.21,14.68,5.26,14.74,5.29l1.81.83-.87-1.8c-.03-.06-3.02-6.27-4.35-9.71Z"/>
      <path class="cls-5" d="M874.62,847.16c1.65-5.74-6.73-17.8-20-24.76-6.3-3.3-7.3-5.08-8.8-7.76-1.46-2.61-3.29-5.86-9.01-10.58-11.8-9.74-23.41-16.57-36.28-23.88-10.31-5.85-20.09-5.6-24.74-5.02-3.98-6.77-9.63-15.32-13.54-16.74-.14-.05-.28-.09-.43-.12-1.18-.27-2.36-.36-3.51-.27-3.98.31-7.42,2.71-9.93,6.92-3.2,5.36-4.49,13.09-3.91,20.88-5.55.72-17.78,2.42-35.76,5.55-7.54,1.31-12.76,2.42-16.57,3.22-9.14,1.93-11.31,2.39-23.03,1.37-7.48-.65-13.82-2.12-19.96-3.54-7.89-1.82-15.35-3.55-23.85-3.16-6.62.3-8.46-.56-11.24-1.86-2.97-1.39-6.66-3.12-15.6-4.14-4.99-.57-9.82-2.11-15.41-3.89-13.14-4.18-31.15-9.92-67.42-8.42-50.49,2.08-107.68,29.67-133.77,55.14-12.63,12.33-17.7,20.67-22.61,28.74-4.49,7.38-8.73,14.36-18.91,24.05-20.89,19.89-36.08,65.7-38.01,71.71-1.63,2.13-10.03,12.4-25.92,20.71-16.37,8.56-44.33,16.75-84.57,7.16-46.54-11.1-68.94-53.03-64.77-121.26.11-1.81.18-3,.17-3.75-.05-2.96-1.98-5.73-5.17-7.42-3.4-1.8-8.89-2.49-14.13.95-6.66,4.38-14.08,16.2-11.61,47.65,4.46,56.64,52,103.41,115.62,113.72,52.22,8.46,91.15-14.09,102.22-21.48,2.37,3.48,6.32,9.1,9.56,12.78,1.18,1.34,2.08,3.39,3.12,5.77,2.41,5.49,5.71,13.01,15.69,17.76,14.13,6.73,26.59-.82,35.69-6.34l1.32-.8c6.07-3.66,17.21.99,20.99,3.09.98.54,2.13.59,3.13.18.85.36,4.29,2.47,9.97,14.14,3.28,6.74,20.39,40.44,35.12,41.72,7.08.61,17.22.19,27.71-.63,12.65-.99,25.81-2.58,34.75-3.66,2.8-.34,5.21-.63,7.1-.84,3.81-.43,7.26-.77,10.39-1.08,6.63-.66,11.92-1.22,16.39-2.15-.17,2.21-.34,5.08-.21,6.72l.06.64c.18,1.77.38,3.78-5.7,7.58-3.35,2.09-6.22,2.72-9.53,3.44-4.28.93-9.14,1.99-15.01,6.45-5.54,4.21-8.81,7.85-9.76,10.86-4.14,2.92-14.19,10.56-15.84,17.22-1.46,5.87-2.89,11.91,3.44,17.15,0,.1-.03.2,0,.3.09.53,1.04,5.28,5.95,9.48,4.37,3.73,7.03,5.26,12.86,4.8,2.04-.16,4.47-.56,7.49-1.19,10.09-2.12,23.23-12.69,39.87-26.07,3.06-2.46,6.24-5.02,9.54-7.63,5.28-4.19,9.3-7.04,12.53-9.33,10.02-7.12,12.24-9.08,14.94-22.25.79-3.86,1.33-7.18,1.81-10.11,1.54-9.45,2.31-14.19,8.69-20.33,5.97-5.74,7.42-9.3,9.63-14.69,1.54-3.77,3.46-8.46,7.77-15.92,7.36-12.74,15.03-18.99,23.92-26.23,3.34-2.72,6.78-5.53,10.44-8.86,11.64-10.58,28.8-27.56,58.45-65.26,19.25-24.48,29.05-21.09,36.93-18.38,2.88.99,5.57,1.93,8.52,1.58,6.12-.73,9.38,1.29,12.39,7.74,4.75,10.15,13.58,16.85,25.54,19.38,15.39,3.26,22.25-5.97,23.73-11.31.27-.97.11-2-.42-2.86.62-1.62,1.26-3.69,1.82-6.44.27-1.34.32-5.63-.47-6.53-.2-.22-.46-.33-.73-.31-.69.06-1.05.72-1.51,2.72-1.03,4.55-5.27,7.23-6.57,7.97-.48-.1-.94-.2-1.32-.29-1.03-.28-9.56-4.44-12.73-12.19-2.42-5.92,8.69-22.71,20.49-30.96,10.55-7.38,26.04-7.71,26.2-7.7.08,0,.16,0,.23-.01,1.52-.1,3.3.36,3.46.77.15.38.44.63.65.95.01,3.09-.56,7.7-3.6,11.26-1.88,2.2-2.07,2.93-1.78,3.51.07.13.34.55,1,.5,1.54-.12,5.86-3.34,7.13-4.76,3.94-4.4,6.07-7.78,7.23-10.13.47-.32.94-.64,1.35-.97,2.2.05,5.93-.29,8.42-2.79,2.89-2.89,2.51-9.59,1.59-15.01l.62-2.15ZM754.56,768.64c1.03-1.72,2.83-3.79,5.33-3.38,1.28.83,4.04,4.59,6.93,9.1-.2-.16-.41-.3-.64-.41-.41-.21-1.27-.54-2.39-.45-1.32.1-2.53.76-3.43,1.85-1.37,1.68-2.77,5.05-1.38,16.31,1.2,9.71,3.39,15.83,5.12,19.38-3.18-3.67-7.66-9.25-9.56-13.53-4.59-10.36-3.6-22.81,0-28.86ZM848.22,882.18h0v.08s0-.08,0-.08ZM867.18,859.37c-.78.54-2.76.66-3.86.5-1.07-.16-2.16.17-2.96.9-.75.68-1.71,1.38-2.47,1.81-2.77-4-8.61-3.85-9.78-3.77-1.63.04-18.09.59-30.11,9-12.43,8.69-27.59,28.44-23.03,39.58,3.91,9.57,14.08,15.56,17.66,16.45.51.13,1.13.26,1.78.4-2.1,2.13-6.02,4.13-13.09,2.63-6.74-1.43-15.77-5.26-20.51-15.39-2.93-6.26-7.8-13.24-19.76-11.84-1.27.15-3.15-.49-5.32-1.24-11.4-3.93-24.25-5.56-44.93,20.73-29.32,37.28-46.2,53.99-57.63,64.39-3.52,3.2-6.89,5.95-10.15,8.61-9.04,7.37-17.58,14.33-25.6,28.21-4.56,7.89-6.66,13.04-8.2,16.8-2.05,5.02-3.08,7.55-7.96,12.23-8.1,7.79-9.17,14.38-10.8,24.35-.47,2.86-.99,6.1-1.76,9.82-2.23,10.85-3.16,11.5-12.06,17.82-3.3,2.34-7.4,5.26-12.83,9.57-3.31,2.62-6.5,5.19-9.58,7.66-15.26,12.27-28.44,22.87-36.84,24.63-9.49,1.99-10.12,1.46-14.21-2.03,0,0-.01-.02-.02-.02,1.03.07,2.04.07,2.97,0,3.86-.3,6.67-1.54,6.89-1.64,1.81-.82,2.61-2.95,1.8-4.76-.82-1.8-2.93-2.61-4.74-1.8-.14.06-6.25,2.64-11.28-.42-4.53-2.76-4.29-4.58-2.68-11.07.9-3.63,8.85-10.32,14.21-13.91,1.04-.7,1.62-1.85,1.6-3.05.25-.56,1.55-2.85,7.17-7.13,4.6-3.49,8.11-4.26,12.18-5.14,3.47-.76,7.41-1.61,11.81-4.36,8.68-5.42,9.48-10.13,9.05-14.41l-.05-.48c-.13-1.59.21-6.01.46-8.41,0-.04-.01-.07-.01-.11,2.52-1.17,4.75-2.68,6.76-4.79,2.81-2.96,4.33-3.94,5.95-4.97,2.18-1.4,4.44-2.84,8.71-7.98,3.68-4.43,5.28-9.32,4.74-14.54-.98-9.6-9.05-17-10.96-18.63-2.59-3.42-5.47-5.24-8.84-6.04l-.65-8.25c-.26-3.29-.81-7.52-1.52-12.88-.77-5.83-1.72-13.08-2.67-22.02-1.75-16.4,9.34-66.92,9.45-67.43.43-1.94-.8-3.86-2.74-4.29-1.94-.43-3.86.8-4.29,2.74-.4,1.78-8.19,37.35-9.56,59.11-3.54-.54-9.43-1.49-15.72-2.77-6.03-1.22-12.05.36-19.03,2.19-6.39,1.68-13.64,3.59-22.69,3.84-12.4.36-18.94.65-22.1.82-1.32-11.07-4.54-29.2-10.98-34.3-1.54-1.22-2.89-2.42-4.31-3.7-4.95-4.43-10.06-9.01-22.62-13.15-15.82-5.22-31.82-4.03-32.5-3.98-1.98.15-3.46,1.88-3.3,3.86.16,1.98,1.88,3.46,3.86,3.31.15-.01,15.28-1.11,29.68,3.64,11.13,3.67,15.27,7.38,20.07,11.67,1.44,1.29,2.93,2.62,4.64,3.98,5.31,4.21,9.25,31.93,9.01,37.09-.19,4.11.17,26.98.69,33.59.07.85.13,1.85.2,2.95.5,8.33,1.26,20.92,7.22,26.93,5.53,5.58,12.73,5.78,20.35,5.99,1.91.05,3.89.11,5.88.25,1.77.12,3.59.1,5.42-.04,8.51-.67,17.36-3.94,22.81-7.23,2.46-1.48,5.53-3.11,8.14-4.46.04-.01.08,0,.11,0,.04-.01,5.54-2.16,12.33-.47,2.29.57,3.86,1.2,3.88,1.2,1.84.74,3.94-.15,4.68-1.99.74-1.84-.14-3.94-1.98-4.68-.08-.03-2.02-.82-4.84-1.52-1.41-.35-2.78-.58-4.09-.71,1.33-.61,2.84-1.13,4.52-1.5,10.14-2.2,12.98-1.17,15.9,2.84.19.26.42.49.67.69.07.06,7.91,6.45,8.68,14.09.32,3.26-.7,6.26-3.12,9.18-3.56,4.28-5.18,5.32-7.05,6.52-1.82,1.16-3.87,2.48-7.29,6.08-4.73,4.98-11.86,5.69-26.05,7.1-3.16.31-6.64.66-10.48,1.09-1.91.21-4.34.51-7.16.85-16.11,1.94-46.1,5.56-60.98,4.27-5.53-.48-17.67-13.86-29.27-37.7-5.44-11.17-10.39-17.09-15.14-18.1-.89-.19-1.67-.2-2.34-.1-4.48-2.22-17.55-7.79-26.78-2.22l-1.34.81c-8.55,5.19-18.24,11.07-28.87,6-7.56-3.6-9.92-8.97-12.2-14.16-1.23-2.81-2.4-5.46-4.31-7.63-4.53-5.14-10.94-14.96-11.01-15.05-.55-.84-1.42-1.41-2.41-1.58-.99-.17-2,.08-2.8.69-.41.32-42.22,31.63-99.82,22.29-60.33-9.78-105.4-53.85-109.6-107.18-2.32-29.46,4.35-41.15,11.36-42.26,2.95-.47,5.03,1.18,5.19,1.81,0,.42-.07,1.68-.16,3.14-.62,10.2-2.28,37.3,5.67,64.48,10.18,34.82,31.92,56.43,64.62,64.22,42.62,10.16,72.44,1.27,89.95-7.98,19.14-10.11,28.03-22.63,28.4-23.16.21-.3.37-.63.48-.99.15-.49,15.74-49.66,36.29-69.23,10.87-10.35,15.56-18.06,20.09-25.52,4.67-7.69,9.5-15.64,21.49-27.33,25.12-24.52,80.25-51.08,129.04-53.1,35-1.44,51.6,3.84,64.94,8.09,5.95,1.9,11.09,3.53,16.78,4.18,7.77.89,10.74,2.28,13.37,3.51,3.34,1.56,6.22,2.91,14.62,2.53,7.52-.34,14.19,1.2,21.91,2.99,6.08,1.41,12.98,3,20.96,3.69,12.79,1.11,15.9.45,25.14-1.5,3.97-.84,8.9-1.88,16.32-3.17,18.05-3.15,30.26-4.83,35.63-5.53.6,2.59,1.36,5.12,2.4,7.47,3.58,8.08,13.97,18.98,14.41,19.44.69.71,1.64,1.12,2.63,1.11.08,0,.17,0,.25,0,.9-.07,1.74-.48,2.36-1.14l4.32-4.67c1.25-1.35,1.28-3.44.06-4.82,0,0-4.09-5.12-5.87-19.54-.41-3.33-.54-5.7-.52-7.36.88.99,1.78,2.07,2.51,3.09,1.62,2.28,3.53,2.49,4.53,2.41,3.23-.26,4.67-3.58,5.36-6.71,4.03-.31,11.33-.08,18.96,4.25,12.57,7.13,23.9,13.8,35.25,23.17,4.69,3.87,6.03,6.25,7.32,8.55,2.14,3.82,4.12,6.62,11.74,10.61,5.17,2.71,8.85,5.87,11.45,8.75-1.1.29-2.51.6-4.78.66-6.6.17-11.34-1.88-11.39-1.9l-4.48-1.98,9.14,7.81c4.38,3.74,12.4,7.07,15.66,8.33.6,3.67.75,7.67.3,8.92ZM528.08,1018.73c-2.65,1.37-5.73,3.02-8.27,4.55-4.75,2.86-15.06,6.88-24.02,6.26-2.15-.15-4.21-.21-6.19-.26-6.67-.18-11.93-.33-15.44-3.86-4.04-4.08-4.76-15.94-5.15-22.31-.07-1.15-.13-2.18-.2-3.08-.52-6.64-.83-29.23-.68-32.7,0-.21-.02-.8-.07-1.59,3.22-.17,9.74-.45,21.62-.79,9.87-.28,17.88-2.39,24.31-4.08,6.36-1.67,11.38-2.99,15.77-2.1,7.1,1.44,13.49,2.45,16.94,2.96.03,1.22.08,2.37.19,3.39.96,9.03,1.92,16.32,2.69,22.19.69,5.25,1.24,9.4,1.48,12.5l.58,7.33c-2.12.2-4.39.59-6.89,1.14-9.58,2.08-14.88,8.08-16.67,10.45Z"/>
      <path class="cls-5" d="M807.46,844c-1.21.44-2.38,1.02-3.5,1.74-1.11.71-2.19,1.68-3.04,2.54-.38.39-.69.82-1.05,1.23.01-.73.03-1.47-.05-2.23-.05-.49-.15-1.03-.24-1.48l-.29-1.26c-.2-.85-.43-1.68-.67-2.52-.48-1.67-1.05-3.3-1.68-4.91-2.58-6.38-6.15-12.39-11.05-17.12,2.9,6.09,5.15,12.26,6.74,18.52.4,1.56.74,3.13,1.05,4.71l.41,2.36.18,1.19c.04.37.09.65.09.99.13,2.64-.65,5.59-1.79,8.43-2.33,5.73-5.87,11.25-9.55,16.65-3.7,5.43-7.68,10.73-11.62,16.23,5.62-3.8,10.61-8.41,15.16-13.44,4.38-4.98,8.4-10.42,11.13-16.86.78-.56,1.55-1.13,2.28-1.73,1.82-1.52,3.48-3.14,5.04-4.75.8-.84,1.44-1.51,2.22-2.23.77-.71,1.58-1.42,2.43-2.15,1.7-1.48,3.5-2.97,5.36-4.84-2.64-.39-5.18.06-7.6.92Z"/>
      <path class="cls-5" d="M775.31,859.26c.25-.81.46-1.59.68-2.43.21-.85.38-1.71.53-2.57.55-3.46.46-7.09-.44-10.53-.92-3.39-2.59-6.74-5.41-8.89.74,3.36.94,6.45.94,9.51,0,3.04-.3,6.02-.77,9.01-.11.75-.24,1.49-.4,2.24l-.44,2.35c-.28,1.58-.56,3.15-.8,4.73l-.75,4.75c-.27,1.6-.46,3.19-1.1,4.76.84-.33,1.49-1,2.09-1.63.61-.65,1.11-1.36,1.62-2.07.98-1.44,1.77-2.96,2.46-4.51.7-1.55,1.26-3.13,1.77-4.73Z"/>
      <path class="cls-5" d="M725.85,823.01c-.51-1.65-1.03-3.3-1.73-4.89-.71-1.57-1.5-3.18-2.75-4.38.7,1.55.97,3.19,1.22,4.83.22,1.64.39,3.28.48,4.94.25,3.3.28,6.61.32,9.92.03,6.6-.14,13.22-.73,19.7-.14,1.62-.33,3.23-.57,4.81-.21,1.49-.59,3.37-.71,5.1-.32,3.51-.28,6.99-.01,10.43.59,6.85,1.93,13.58,4.32,19.99-.04-6.81-.14-13.49.18-20.06.17-3.28.43-6.53.91-9.69.24-1.61.56-3.02.91-4.84.31-1.74.51-3.47.69-5.19.63-6.9.4-13.77-.49-20.56-.45-3.4-1.14-6.77-2.05-10.09Z"/>
      <path class="cls-5" d="M706.14,884.95c-.16-7.3.31-14.56,1.24-21.81.98-7.56.99-15.37-.29-22.95-.63-3.79-1.64-7.51-2.95-11.11-1.39-3.56-3.01-7.07-5.38-10.05,1.23,3.56,2.07,7.17,2.66,10.79.64,3.61.98,7.25,1.19,10.88.39,7.27.01,14.5-.93,21.73-.98,7.55-1.07,15.3-.04,22.88.51,3.8,1.36,7.54,2.47,11.19,1.2,3.62,2.58,7.21,4.69,10.38-.93-3.66-1.53-7.31-1.93-10.97-.45-3.65-.63-7.31-.72-10.96Z"/>
      <path class="cls-5" d="M666.55,914.61c1.65-4.33,3.47-8.83,4.65-13.66,1.18-4.82,1.64-9.93,1.19-14.9-.52-4.86-1.4-9.71-2.82-14.32-1.35-4.65-3.21-9.1-5.11-13.42-1.93-4.33-3.99-8.5-5.05-13.14-.22,4.81,1.21,9.54,2.39,14.09,1.29,4.55,2.5,9.04,3.42,13.56.85,4.54,1.57,9.04,1.74,13.59.19,4.45-.27,8.84-1.35,13.18-1.03,4.35-2.69,8.66-4.19,13.22-1.46,4.55-2.84,9.4-3,14.43-.09,2.49-.03,5,.46,7.51.49,2.49,1.35,4.97,2.71,7.14,1.38,2.16,3.17,3.94,5,5.46,1.8,1.55,3.7,2.91,4.77,5.06-.46-2.39-2.2-4.35-3.63-6.17-1.48-1.83-2.82-3.65-3.65-5.68-1.77-3.99-1.76-8.51-1.19-12.93.64-4.41,1.96-8.68,3.66-13Z"/>
      <path class="cls-5" d="M676.12,837.38l-.79-3-.4-1.53c-.11-.46-.21-.91-.29-1.37-.69-3.66-.37-7.38.99-11.03,1.35-3.66,3.58-7.21,6.38-10.64-4.22,1.52-7.9,4.6-10.42,8.63-2.54,4.03-3.55,9.27-2.61,14.08.11.6.25,1.19.41,1.78l.45,1.59c.35,1.08.68,2.14,1.08,3.18.78,2.09,1.69,4.13,2.75,6.09,2.14,3.89,4.78,7.66,8.42,10.33-1.7-4.1-3.01-8.08-4.25-12.09-.6-2.01-1.19-4-1.73-6.02Z"/>
      <path class="cls-5" d="M632.56,864.91c-.06,2.46.19,5.08.32,7.24.14,2.26.15,4.53.11,6.81-.05,4.57-.59,9.13-1.25,13.69-1.47,9.12-3.86,18.17-7.07,27.09,5.37-7.87,9.09-16.85,11.47-26.19,1.23-4.67,1.91-9.49,2.29-14.34.17-2.43.19-4.88.12-7.33-.13-2.54-.32-4.63-.25-6.89.17-8.96,2.26-18,5.06-26.82,2.85-8.83,6.39-17.51,10.32-26.15-5.97,7.41-10.76,15.76-14.51,24.59-3.69,8.84-6.42,18.33-6.61,28.28Z"/>
      <path class="cls-5" d="M625.27,948.73l-2.47-3.91c-.83-1.26-1.49-2.38-2.09-3.66-2.43-5.02-3.53-10.78-3.91-16.69-.38-5.92-.07-11.99.56-18.21-2.94,5.56-4.53,11.78-5.07,18.17-.47,6.37.3,13.11,3.24,19.22.71,1.5,1.65,3.02,2.54,4.31l2.65,3.78c1.79,2.5,3.61,4.99,5.49,7.43,3.78,4.88,7.67,9.68,12.06,14.17-2.37-5.81-5.26-11.28-8.28-16.67-1.51-2.69-3.1-5.33-4.72-7.95Z"/>
      <path class="cls-5" d="M607.3,831.16c-.68,4.85-1.73,9.63-3.03,14.31-1.35,4.65-2.93,9.25-4.8,13.76-1.77,4.54-4,8.84-5.7,13.94-1.64,5.13-2.07,10.42-2.15,15.47-.01,5.08.14,10.09.55,15.07.34,4.98.84,9.94,1.46,14.91.35,2.48.69,4.96,1.17,7.42.24,1.23.49,2.46.78,3.69.16.61.32,1.22.51,1.82.2.59.36,1.23.75,1.73-.38-1.17-.34-2.44-.4-3.67-.05-1.24-.06-2.48-.06-3.72,0-2.48,0-4.96.07-7.44l.21-14.87c.12-4.96.08-9.88.41-14.73.29-4.86.76-9.57,2.19-13.92.68-2.2,1.62-4.41,2.57-6.71.93-2.3,1.9-4.66,2.73-7.05,1.64-4.78,3.17-9.64,4.07-14.67.98-4.99,1.45-10.07,1.47-15.13-.06-5.05-.42-10.12-1.76-14.97.07,5-.33,9.92-1.04,14.77Z"/>
      <path class="cls-5" d="M505.17,888.66c-.6,1.65-1.19,3.31-1.86,4.89-.33.8-.66,1.58-1.01,2.34l-1.18,2.41c-.81,1.76-1.52,3.64-1.96,5.67-.43,2.02-.55,4.24-.22,6.34.33,2.1,1.01,4.01,1.73,5.73l2.11,4.93c2.7,6.32,3.95,13.28,3.73,20.57,2.62-6.84,2.65-14.78.55-22.03-.99-3.62-2.45-6.96-2.71-9.9-.31-2.9.57-5.86,1.98-8.89l.54-1.14.62-1.32c.39-.88.76-1.76,1.09-2.63.65-1.76,1.25-3.52,1.76-5.29,1.04-3.53,1.89-7.08,2.6-10.65,1.39-7.14,2.39-14.34,2.61-21.65-2.57,6.83-4.72,13.7-6.97,20.5-1.12,3.4-2.23,6.79-3.42,10.11Z"/>
      <path class="cls-5" d="M495.77,928.75c-.56-2.08-1.01-4.2-1.33-6.32-.32-2.18-.88-4.52-1.69-6.69-.81-2.2-1.94-4.26-3.19-6.21-2.51-3.93-5.69-7.24-8.78-10.37l-1.16-1.17c-.4-.4-.79-.77-1.08-1.09-.62-.67-1.14-1.36-1.49-2.05-.73-1.36-.86-2.73-.52-4.47.32-1.72,1.1-3.6,1.99-5.46.88-1.88,1.92-3.75,2.96-5.65l3.19-5.7c1.16-2,2.13-4.22,2.82-6.45,1.44-4.48,1.8-9.18,1.4-13.71-.47-4.51-1.51-16.3-3.55-20.26,1.61,8.65,1.13,24.87-2.06,32.42-.82,1.89-1.79,3.63-2.94,5.36-1.22,1.83-2.4,3.69-3.58,5.58-1.17,1.89-2.29,3.84-3.35,5.9-1.03,2.08-2,4.26-2.54,6.86-.25,1.29-.36,2.71-.18,4.17.18,1.45.66,2.9,1.36,4.13.7,1.24,1.56,2.28,2.45,3.19.47.48.88.85,1.27,1.21l1.21,1.11c3.22,2.94,6.3,5.84,8.92,9.05,2.59,3.25,4.57,6.82,5.79,10.95.75,2.14,1.55,4.23,2.59,6.24,1.05,1.98,2.2,3.97,3.89,5.45-.6-.92-1.04-1.93-1.41-2.95-.39-1.01-.71-2.04-.99-3.09Z"/>
      <path class="cls-5" d="M466.56,904.53c-.73-.73-1.57-1.53-2.18-2.2-1.27-1.41-2.26-2.95-2.83-4.65-1.14-3.41-.9-7.37-.54-11.52.18-2.08.36-4.22.48-6.39.08-2.09.26-4.1.41-6.28.12-2.16.22-4.51-.22-6.99-.43-2.47-1.5-4.93-2.94-6.9-1.43-1.99-3.1-3.61-4.84-5.04l-1.31-1.04c-.41-.31-.71-.55-1.05-.86-.66-.59-1.26-1.25-1.79-1.99-2.11-2.96-3.14-6.93-3.47-10.98-.37-4.08-.11-8.3.46-12.53-1.79,3.9-2.85,8.14-3.27,12.53-.31,4.36.06,9.11,2.5,13.38.6,1.06,1.32,2.06,2.16,2.98.4.45.9.91,1.31,1.27l1.11,1.02c1.42,1.38,2.74,2.81,3.7,4.33.97,1.52,1.6,3.06,1.84,4.77.27,1.71.22,3.63.07,5.69-.12,2.04-.29,4.26-.35,6.4-.04,2.06-.18,4.15-.25,6.3-.06,2.15-.13,4.37.09,6.66.2,2.28.7,4.68,1.75,6.9,1.03,2.22,2.58,4.2,4.39,5.69.95.77,1.75,1.31,2.62,1.96l2.57,1.88c3.48,2.45,6.94,4.91,10.58,7.18-2.81-3.24-5.78-6.28-8.75-9.33l-2.26-2.25Z"/>
      <path class="cls-5" d="M454.46,906.79c-.95-1.61-1.74-3.31-2.42-5.05-.67-1.72-1.22-3.48-1.86-5.42-.64-1.89-1.35-3.8-2.33-5.7-.95-1.92-2.28-3.75-3.64-5.31-2.74-3.08-5.43-5.7-8.04-8.55-1.32-1.4-2.62-2.82-3.9-4.25-.67-.74-1.28-1.39-1.83-2.07-.56-.69-1.08-1.4-1.58-2.13-1.99-2.93-3.4-6.26-4.3-9.8-1.71-7.12-1.39-14.92.22-22.6-2.01,3.42-3.29,7.25-4.14,11.19-.78,3.95-1.05,8.09-.48,12.22.5,4.13,1.9,8.24,4.09,11.9.54.92,1.15,1.8,1.79,2.65.65.86,1.34,1.66,1.96,2.39,1.3,1.5,2.61,2.96,3.96,4.42,1.36,1.44,2.74,2.86,4.13,4.25,1.4,1.38,2.81,2.73,4.08,4.05,1.28,1.31,2.31,2.61,3.25,4.12.92,1.51,1.77,3.19,2.59,4.91.81,1.68,1.58,3.6,2.63,5.38,1.04,1.76,2.18,3.47,3.5,5.03,2.66,3.06,5.9,5.8,9.74,6.96-3.2-2.29-5.58-5.34-7.43-8.59Z"/>
      <path class="cls-5" d="M404.76,886.91c-1.68-.88-3.4-1.6-4.99-2.33-3.23-1.41-5.74-2.96-7.91-5.36-2.19-2.35-4.05-5.25-5.81-8.26-1.69-2.86-2.87-5.94-3.53-9.23-1.32-6.58-.55-13.75,1.67-20.67-4.38,5.88-6.69,13.51-6.14,21.27.29,3.87,1.42,7.76,3.22,11.23,1.69,3.32,3.66,6.61,6.38,9.58,1.37,1.47,2.96,2.82,4.7,3.92,1.75,1.08,3.58,1.89,5.31,2.56,1.74.66,3.38,1.26,4.97,1.9,1.6.65,3.09,1.38,4.75,2.19,6.51,3.13,13.06,6.2,19.91,8.77-5.64-4.67-11.61-8.78-17.7-12.72-1.49-.96-3.15-2-4.84-2.85Z"/>
      <path class="cls-5" d="M467.61,827.64c.86-1.84,1.53-3.87,2.32-5.37,1.59-3.22,4.03-5.36,7.1-8.17,1.49-1.43,3.12-3.12,4.27-5.25.14-.27.28-.52.42-.83l.2-.44.14-.35c.23-.53.46-1.27.57-1.94.26-1.39.13-2.83-.27-4.08-.84-2.51-2.47-4.26-4.17-5.6-1.76-1.3-3.62-2.33-5.66-2.88,1.34,1.61,2.61,3.16,3.6,4.79,1,1.6,1.75,3.28,1.84,4.7.09,1.48-.34,2.3-1.34,3.83-.91,1.34-2.13,2.55-3.56,3.88-1.4,1.34-3.01,2.81-4.37,4.64-1.37,1.81-2.45,3.95-3.02,6.14-.59,2.27-.65,4.22-.82,6.27-.1,2.05-.22,4.09-.08,6.19,1.11-1.8,1.96-3.66,2.82-5.51Z"/>
      <path class="cls-5" d="M538.22,796.58c.22-.38.46-.83.63-1.16.24-.44.48-1.02.64-1.55.35-1.09.41-2.24.29-3.3-.26-2.13-1.21-3.84-2.33-5.23-1.17-1.36-2.47-2.52-4.04-3.28.62,1.61,1.21,3.1,1.55,4.58.36,1.46.53,2.87.31,3.99-.1.56-.27,1.03-.51,1.44-.13.22-.25.37-.43.62-.25.36-.43.59-.66.89-.91,1.19-1.89,2.45-2.84,3.75-1.91,2.61-3.72,5.48-4.98,8.7-.62,1.61-1.1,3.31-1.29,5.08-.15,1.76-.08,3.58.61,5.19,1.15-3.23,2.86-5.63,4.66-8.12,1.81-2.46,3.76-4.86,5.65-7.45.93-1.31,1.88-2.64,2.75-4.15Z"/>
      <path class="cls-5" d="M589.25,795.59c-3.29.78-6.6,1.96-9.58,4-2.97,2-5.62,4.99-6.94,8.64-.34.9-.59,1.84-.77,2.76-.08.37-.16.86-.23,1.31-.07.44-.13.88-.18,1.32-.18,1.76-.23,3.51-.19,5.23.22,6.9,1.81,13.3,2.94,19.57,1.13,6.27,2,12.5.17,18.9,2.05-2.63,3.21-5.95,3.84-9.3.57-3.36.66-6.78.49-10.11-.34-6.67-1.49-13.08-1.68-19.23-.06-1.53-.03-3.05.09-4.53l.1-1.11c.04-.35.08-.67.15-1.1.11-.68.25-1.32.43-1.97.74-2.56,2.36-4.87,4.55-6.82,2.19-1.95,4.85-3.58,7.72-4.9,2.86-1.37,5.91-2.45,9.08-3.41-3.32-.3-6.66.05-9.98.75Z"/>
      <path class="cls-5" d="M391.85,922.68c-.6-.08-1.24-.15-1.86-.16-2.54-.08-5.09.61-7.25,1.69-2.18,1.06-4.05,2.45-5.79,3.82-3.45,2.78-6.44,5.69-9.7,7.87-3.21,2.22-6.71,3.61-10.37,3.83-1.93.14-3.53-.05-5.17-.67-1.6-.62-3.11-1.62-4.46-2.94-2.67-2.67-4.69-6.32-6.26-10.15-1.61-3.84-2.79-7.92-3.79-12.1-.27,4.31.18,8.66,1.11,12.95,1.03,4.26,2.57,8.59,5.62,12.3,1.5,1.85,3.44,3.51,5.76,4.59,2.27,1.12,5,1.52,7.33,1.47,2.46-.03,4.86-.48,7.15-1.27,2.28-.8,4.38-1.95,6.3-3.23,3.83-2.61,6.91-5.75,9.98-8.45,3.06-2.72,6.16-4.93,9.62-5.21.44-.04.86-.04,1.33-.03l1.6.08,3.19.15,6.41.24c2.15.02,4.3.08,6.48-.02,2.16-.11,4.37-.33,6.43-.97-4.3-.03-8.4-1.01-12.6-1.82l-6.3-1.18c-1.05-.2-2.11-.36-3.17-.53l-1.58-.25Z"/>
      <path class="cls-5" d="M421.53,938.2c3.77.07,7.46.3,10.87,1.05,1.72.37,3.31.88,4.85,1.59,1.7.78,3.35,1.6,4.92,2.5,1.58.9,3.02,1.88,4.36,3.13.7.61,1.33,1.36,2.11,2.08.77.73,1.71,1.36,2.71,1.62-1.32-1.6-1.57-3.36-2.52-5.35-.94-1.95-2.38-3.69-3.95-5.12-1.57-1.44-3.31-2.63-5.06-3.69-1.91-1.15-4.06-1.92-6.17-2.39-4.26-.92-8.52-.72-12.53.08-4.01.84-7.88,2.23-11.3,4.51,4.08.02,7.94-.09,11.73-.02Z"/>
      <path class="cls-5" d="M426.5,961.9c-9.03-4.02-20.19-3.65-29.49.64-4.69,1.86-8.97,4.77-13.05,6.36-4.06,1.62-8.57,1.94-13.29,1.84-4.75-.1-9.44-.44-13.94-1.47-4.51-.96-8.83-2.69-12.64-5.13-1.9-1.23-3.61-2.72-5.04-4.39-.7-.83-1.33-1.74-1.73-2.64-.1-.22-.18-.44-.25-.65-.1-.37-.12-.51-.31-1.03-.32-.82-.71-1.41-1.17-1.97-1.86-2.15-4.1-3.45-6.41-4.47-2.31-.94-4.81-1.81-7.3-1.49,1.23.11,2.35.58,3.44,1.09,1.08.52,2.12,1.12,3.1,1.79,1.94,1.33,3.82,2.91,4.88,4.71.25.43.47.91.54,1.25.03.06.1.52.12.75.06.39.15.76.25,1.11.42,1.41,1.07,2.62,1.8,3.77,1.48,2.27,3.39,4.15,5.44,5.8,4.11,3.32,9.02,5.39,13.97,6.79,2.49.68,5.03,1.13,7.58,1.45,2.54.27,5.03.43,7.57.49,2.54.03,5.12-.04,7.74-.41,2.61-.37,5.3-1.06,7.75-2.17,2.46-1.1,4.62-2.46,6.69-3.72,2.08-1.25,4.1-2.49,6.19-3.61,4.15-2.28,8.47-3.91,13.17-4.68,4.66-.81,9.54-.84,14.38,0Z"/>
      <path class="cls-5" d="M427.62,982c-1.01-.11-2.08-.28-3.24-.37-1.14-.07-2.28-.12-3.44-.07-2.3.09-4.63.46-6.85,1.22-2.21.76-4.32,1.89-6.06,3.42-1.71,1.55-3.19,3.4-3.78,5.57,3.31-2.87,7.12-4.12,10.91-4.61,1.9-.23,3.82-.28,5.75-.16,1.98.1,3.76.38,5.97.7,4.27.55,8.59.75,12.91.54,4.31-.24,8.64-.78,12.82-2.23-4.29-.94-8.44-1.64-12.59-2.28-4.15-.63-8.27-1.2-12.4-1.73Z"/>
      <path class="cls-5" d="M449.5,1022.3c-1.02.47-2.11.88-3.25,1.23-2.29.72-4.77,1.29-7.33,1.88-2.57.6-5.21,1.21-8.03,2.13,2.61,1.45,5.45,2.1,8.32,2.37,2.87.23,5.84.02,8.76-.89,1.45-.46,2.9-1.09,4.25-1.99,1.25-.83,2.54-1.92,3.5-3.19,2-2.49,2.95-6.18,1.5-8.91-1.05,2.77-2.81,4.41-4.68,5.69-.98.64-1.93,1.16-3.04,1.68Z"/>
      <path class="cls-5" d="M371.12,994.75c-2.21-1.84-4.66-3.42-7.27-4.67-2.6-1.26-5.34-2.22-8.13-2.94-1.39-.37-2.8-.65-4.22-.9-1.39-.22-2.54-.43-3.78-.75-4.9-1.22-9.57-3.41-13.91-6.33-4.35-2.92-8.39-6.49-12.22-10.57,1.78,5.37,5.19,10.15,9.4,14.11,4.25,3.94,9.55,6.95,15.34,8.37,1.42.34,2.99.61,4.32.78,1.31.16,2.6.38,3.89.6,2.58.46,5.13,1.06,7.65,1.82,2.51.77,5,1.65,7.39,2.83,2.41,1.14,4.75,2.49,6.92,4.27-1.19-2.59-3.22-4.72-5.38-6.62Z"/>
      <path class="cls-5" d="M356.67,894.19c1.54,1.63,3.62,2.89,5.87,3.38,2.24.48,4.6.19,6.49-1.04-1.93-1.17-3.44-2.1-4.73-3.13-1.29-1.01-2.37-2.05-3.47-3.19-1.1-1.14-2.19-2.39-3.36-3.74-1.19-1.35-2.42-2.78-4.02-4.34-.71,2.17-.54,4.34,0,6.4.58,2.05,1.65,4.02,3.21,5.65Z"/>
      <path class="cls-5" d="M433.91,827.37c.49,1.1,1.13,2.23,2.16,2.97.31-2.38.94-4.26,1.45-6.21l.79-2.87c.24-.9.54-1.93.74-3.18.36-2.39.18-4.87-.56-7.15-.76-2.26-2-4.41-4.02-5.85-.15,2.43-.28,4.47-.45,6.46-.16,1.97-.38,3.83-.66,5.68-.12.88-.35,1.93-.44,3.15-.08,1.16-.08,2.34.07,3.52.15,1.18.43,2.36.91,3.48Z"/>
      <path class="cls-5" d="M407.77,835.53c.2,1.02.26,1.79.38,3.08.14,1.18.32,2.36.59,3.53.54,2.34,1.27,4.68,2.64,6.93,1.03-2.42,1.53-4.77,1.88-7.11.17-1.17.27-2.34.35-3.5.04-.59.05-1.12.05-1.88-.04-.7-.11-1.38-.22-2.05-.48-2.67-1.56-5.03-2.97-7.11-1.44-2.06-3.18-3.9-5.49-5.18.32,2.6.87,4.87,1.39,7.06.53,2.18,1.07,4.26,1.41,6.22Z"/>
      <path class="cls-5" d="M751.33,817.24c1.32,2.95,2.52,5.88,3.32,8.86.85,2.94,1.29,5.97.96,8.64-.17,1.33-.56,2.54-1.16,3.59-.16.27-.3.49-.51.77-.24.34-.39.52-.62.82-.43.54-.89,1.06-1.39,1.57-1.97,2.04-4.46,3.8-7.01,6.04-1.26,1.14-2.55,2.43-3.65,4-1.08,1.58-1.93,3.45-2.28,5.37-.37,1.92-.34,3.83-.06,5.61.28,1.85.76,3.28,1,4.71.55,2.94.85,5.96.65,9.01-.14,3.05-.7,6.14-1.86,9.15,2.27-2.36,3.68-5.48,4.64-8.67.89-3.23,1.25-6.64,1.06-10.02-.07-1.74-.38-3.41-.45-4.73-.06-1.38.02-2.7.34-3.89.6-2.37,2.18-4.3,4.43-6.27,2.2-1.98,4.91-3.97,7.22-6.67.57-.68,1.12-1.39,1.63-2.14.23-.34.54-.82.72-1.15.22-.39.47-.86.67-1.3.82-1.82,1.14-3.77,1.12-5.61-.05-3.72-1.33-6.99-2.86-9.92-1.63-2.9-3.56-5.56-5.93-7.8Z"/>
      <path class="cls-5" d="M783.37,805.47c.42.45.9.9,1.48,1.32.3.2.63.39.99.56.18.09.37.16.57.24.2.07.25.08.39.11,1.18.32,2.25.43,3.35.39,2.16-.11,4.24-.74,5.97-2.18-2-.94-3.71-1.6-5.25-2.29-.75-.34-1.51-.68-2.09-1.01l-.27-.14-.07-.06-.2-.19c-.17-.14-.37-.35-.58-.59-.88-.98-1.88-2.39-2.98-3.8-1.12-1.43-2.32-2.91-3.98-4.37-.62,2.15-.54,4.2-.14,6.21.45,2,1.21,3.96,2.82,5.81Z"/>
      <path class="cls-5" d="M825.09,844.19c-1.08,1.53-2.2,2.89-3.39,4.22-.29.33-.62.68-.9.98l-1.04,1.11c-.67.74-1.34,1.48-1.98,2.25l-1.94,2.34c-.67.8-1.3,1.63-2.18,2.43,1.19.42,2.45.24,3.6.02,1.16-.26,2.24-.69,3.27-1.19,1.02-.51,1.97-1.12,2.87-1.77.46-.34.88-.7,1.28-1.03.47-.43.88-.83,1.29-1.27,1.61-1.79,2.8-4.01,3.3-6.37.48-2.34.37-4.87-.88-6.99-1.15,2.09-2.21,3.74-3.3,5.28Z"/>
      <path class="cls-5" d="M544.76,872.67c-.25-.79-.54-1.56-.86-2.37l-.85-2.09c-2.13-5.33-3.24-11.07-3.43-16.96-.2-5.9,1.44-17.44,2.77-23.55-3.55,5.22-6.55,16.98-7.27,23.38-.67,6.42.15,13.13,2.6,19.26l.93,2.18c.25.63.51,1.29.75,1.97.5,1.34.88,2.71,1.22,4.09.67,2.77,1.01,5.62,1.04,8.51.05,5.79-1.13,11.73-3.48,17.51,4.42-4.52,7.11-10.73,8-17.22.44-3.26.35-6.61-.2-9.88-.28-1.64-.69-3.25-1.18-4.83Z"/>
    </g>
  </g>
  <path class="cls-2" d="M1904.15,915.83c0,15.98-5.66,29.63-16.98,40.95-11.32,11.32-24.97,16.98-40.95,16.98s-29.63-5.66-40.95-16.98c-11.32-11.32-16.98-24.97-16.98-40.95s5.66-29.63,16.98-40.95c11.32-11.32,24.97-16.98,40.95-16.98s29.63,5.66,40.95,16.98c11.32,11.32,16.98,24.97,16.98,40.95ZM1896.39,915.83c0-13.84-4.9-25.71-14.7-35.63-9.8-9.91-21.62-14.87-35.46-14.87s-25.66,4.96-35.46,14.87c-9.8,9.91-14.7,21.79-14.7,35.63s4.9,25.72,14.7,35.63c9.8,9.91,21.62,14.87,35.46,14.87s25.66-4.96,35.46-14.87c9.8-9.91,14.7-21.79,14.7-35.63ZM1883.53,945.3h-14.93l-22.17-23.77h-10.85v23.77h-11.05v-61.27h20.89c4.2,0,7.66.18,10.38.53,2.72.36,5.4,1.23,8.04,2.61,2.81,1.52,4.88,3.36,6.19,5.52,1.32,2.17,1.98,4.88,1.98,8.14,0,4.33-1.26,7.94-3.78,10.82-2.52,2.88-5.99,5.17-10.41,6.86l25.71,26.79ZM1859.96,901.57c0-1.61-.31-3.04-.94-4.29-.63-1.25-1.67-2.28-3.15-3.08-1.39-.76-2.86-1.25-4.42-1.47-1.56-.22-3.53-.34-5.89-.34h-9.98v20.69h8.51c2.77,0,5.16-.21,7.17-.64,2.01-.42,3.66-1.15,4.95-2.18,1.38-1.12,2.35-2.34,2.91-3.68.56-1.34.84-3.01.84-5.02Z"/>
</svg>
